<svg xmlns="http://www.w3.org/2000/svg" version="1.1" xmlns:xlink="http://www.w3.org/1999/xlink" xmlns:svgjs="http://svgjs.dev/svgjs" width="1440" height="768" preserveAspectRatio="none" viewBox="0 0 1440 768"><g mask="url(&quot;#SvgjsMask1051&quot;)" fill="none"><rect width="1440" height="768" x="0" y="0" fill="rgba(28, 28, 28, 1)"></rect><path d="M0,566.699C104.24,566.639,171.041,458.953,258.791,402.687C346.656,346.347,449.619,316.136,516.168,235.726C595.795,139.513,691.178,26.79,672.028,-96.623C652.869,-220.093,508.437,-275.377,422.751,-366.316C341.47,-452.58,297.661,-594.909,181.297,-617.441C64.073,-640.14,-28.381,-518.814,-139.529,-475.193C-237.915,-436.58,-350.328,-440.671,-433.92,-375.993C-527.779,-303.371,-611.841,-207.658,-635.576,-91.382C-659.802,27.296,-636.57,160.839,-563.171,257.192C-493.626,348.486,-359.56,347.71,-258.983,402.985C-167.629,453.191,-104.241,566.759,0,566.699" fill="#191919"></path><path d="M1440 1403.2640000000001C1554.234 1378.605 1639.374 1291.46 1725.983 1212.998 1800.074 1145.876 1859.311 1069.203 1906.2069999999999 980.91 1955.7649999999999 887.605 2001.737 792.271 2005.527 686.689 2009.81 567.3820000000001 2006.1889999999999 435.352 1929.064 344.224 1851.771 252.89800000000002 1718.55 243.98900000000003 1603.3899999999999 211.543 1489.542 179.466 1376.774 135.55200000000002 1260.2359999999999 155.78200000000004 1136.054 177.33900000000006 1005.957 225.79399999999998 932.2660000000001 328.046 860.013 428.303 877.842 563.521 877.328 687.1 876.878 795.41 900.675 896.739 929.469 1001.152 963.756 1125.483 960.571 1276.55 1061.8890000000001 1356.3519999999999 1163.724 1436.5610000000001 1313.29 1430.616 1440 1403.2640000000001" fill="#1f1f1f"></path></g><defs><mask id="SvgjsMask1051"><rect width="1440" height="768" fill="#ffffff"></rect></mask></defs></svg>